<svg xmlns="http://www.w3.org/2000/svg" viewBox="0 0 256 256" width="256" height="256">
  <g>
    <!-- eraser -->
    <path d="M 96 26 h 64 a 10 10 0 0 1 10 10 v 26 h -84 v -26 a 10 10 0 0 1 10 -10 Z" fill="#e5484d"/>
    <!-- ferrule -->
    <path d="M 96 56 h 64 v 8 h -64 Z" fill="#8a8f98"/>
    <path d="M 96 72 h 64 v 18 h -64 Z" fill="#c9ced6"/>
    <!-- body -->
    <path d="M 96 90 h 64 v 110 h -64 Z" fill="#f6c945"/>
    <!-- body shading stripe -->
    <path d="M 96 90 h 8 v 110 h -8 Z" fill="#e0b03a"/>
    <!-- wood cone -->
    <path d="M 96 200 h 64 l -14 32 h -36 Z" fill="#e8c39e"/>
    <!-- graphite tip -->
    <path d="M 118 232 h 20 l -4 20 h -12 Z" fill="#4a4a52"/>
    <!-- eyes -->
    <circle cx="112" cy="122" r="6" fill="#2b2b31"/>
    <circle cx="144" cy="122" r="6" fill="#2b2b31"/>
    <!-- eyebrows -->
    <path d="M 103 106 Q 112 100 121 106" fill="none" stroke="#2b2b31" stroke-width="4" stroke-linecap="round"/>
    <path d="M 135 106 Q 144 100 153 106" fill="none" stroke="#2b2b31" stroke-width="4" stroke-linecap="round"/>
    <!-- smile -->
    <path d="M 118 148 Q 128 156 138 148" fill="none" stroke="#2b2b31" stroke-width="4" stroke-linecap="round"/>
  </g>
</svg>
